<svg xmlns="http://www.w3.org/2000/svg" viewBox="0 0 414 257">
  <defs>
    <style>
      .a {
        fill: #f6f6f6;
      }
    </style>
  </defs>
  <path class="a" d="M414,133.6c-30.25,8.82-62.52,18.36-93.76,27.6-84.42,25-171.72,50.77-241.71,69.08C45.76,238.86,20.18,244.91,0,249V145.14c12.76-5.89,26.24-12,40-18.17,33.07-14.89,67.26-30.29,94.54-44.62,28.58-15,39.88-24,44.2-28.15-7.22-2.5-27.31-6.27-76.36.75C73.25,59.13,38.55,66.44,0,76.48V24.88C33.93,16.37,64.92,10,91.78,6c60.34-9,98.34-6.07,119.6,9.2,16.09,11.55,22.53,29.77,17.69,50-7.65,32-57.22,57.26-168.51,107.38-17.83,8-35,15.78-50.7,23.14,16.14-3.66,36-8.51,60.43-14.95,68.48-18,153.53-43.18,235.77-67.5,32.4-9.58,65.9-19.48,97.17-28.59q5.43-1.57,10.77-3.09ZM181.23,51.38Z"/>
</svg>
